# xmcd
#
# Track frame offsets: 
#        150
#        21905
#        33885
#        51355
#        69982
#        77167
#        91975
#        105610
#        116392
#        132980
#        146047
#        164117
#
# Disc length: 2374 seconds
#
# Revision: 15
# Processed by: cddbd v1.5.2PL0 Copyright (c) Steve Scherf et al.
# Submitted via: ExactAudioCopy v0.99pb5
#
DISCID=a309440c
DTITLE=The No Comprendo - Les Rita Mitsouko
DYEAR=1986
DGENRE=Rock
TTITLE0=Les histoires d'A
TTITLE1=Andy
TTITLE2=C'est comme ça
TTITLE3=Vol de nuit
TTITLE4=Someone to Love
TTITLE5=Stupid Anyway
TTITLE6=Un soir un chien
TTITLE7=Bad Days
TTITLE8=Tonite
TTITLE9=Nuit d'ivresse
TTITLE10=Andy (English Version)
TTITLE11=Bonus
EXTD=
EXTT0=
EXTT1=
EXTT2=
EXTT3=
EXTT4=
EXTT5=
EXTT6=
EXTT7=
EXTT8=
EXTT9=
EXTT10=
EXTT11=
PLAYORDER=
